<svg width="42" height="42" viewBox="0 0 42 42" fill="none" xmlns="http://www.w3.org/2000/svg">
<path d="M35.5833 18.9167H6.41667M35.5833 18.9167C37.8845 18.9167 39.75 20.7821 39.75 23.0833V35.5833C39.75 37.8845 37.8845 39.75 35.5833 39.75H6.41667C4.11548 39.75 2.25 37.8845 2.25 35.5833V23.0833C2.25 20.7821 4.11548 18.9167 6.41667 18.9167M35.5833 18.9167V14.75C35.5833 12.4488 33.7179 10.5833 31.4167 10.5833M6.41667 18.9167V14.75C6.41667 12.4488 8.28215 10.5833 10.5833 10.5833M10.5833 10.5833V6.41667C10.5833 4.11548 12.4488 2.25 14.75 2.25H27.25C29.5512 2.25 31.4167 4.11548 31.4167 6.41667V10.5833M10.5833 10.5833H31.4167" stroke="#A0A0A1" stroke-width="3" stroke-linecap="round" stroke-linejoin="round"/>
</svg>
