<svg width="38" height="38" viewBox="0 0 38 38" fill="none" xmlns="http://www.w3.org/2000/svg">
<path d="M2.33331 4.41665C2.33331 3.26605 3.26605 2.33331 4.41665 2.33331H33.5833C34.7339 2.33331 35.6666 3.26605 35.6666 4.41665V8.58331C35.6666 9.73391 34.7339 10.6666 33.5833 10.6666H4.41665C3.26605 10.6666 2.33331 9.73391 2.33331 8.58331V4.41665Z" stroke="#A0A0A1" stroke-width="3" stroke-linecap="round" stroke-linejoin="round"/>
<path d="M2.33331 21.0833C2.33331 19.9327 3.26605 19 4.41665 19H16.9166C18.0672 19 19 19.9327 19 21.0833V33.5833C19 34.7339 18.0672 35.6666 16.9166 35.6666H4.41665C3.26605 35.6666 2.33331 34.7339 2.33331 33.5833V21.0833Z" stroke="#A0A0A1" stroke-width="3" stroke-linecap="round" stroke-linejoin="round"/>
<path d="M27.3333 21.0833C27.3333 19.9327 28.266 19 29.4166 19H33.5833C34.7339 19 35.6666 19.9327 35.6666 21.0833V33.5833C35.6666 34.7339 34.7339 35.6666 33.5833 35.6666H29.4166C28.266 35.6666 27.3333 34.7339 27.3333 33.5833V21.0833Z" stroke="#A0A0A1" stroke-width="3" stroke-linecap="round" stroke-linejoin="round"/>
</svg>
